<svg width="380" height="50" viewBox="0 0 380 50" fill="none" xmlns="http://www.w3.org/2000/svg">
<g clip-path="url(#clip0_127874_496)">
<path d="M6 37H42V33H6V37ZM6 27H42V23H6V27ZM6 13V17H42V13H6Z" fill="#002F52"/>
</g>
<path d="M91.9997 6.71875L108.148 40.8849H75.8511L91.9997 6.71875Z" fill="#FECD2F"/>
<path fill-rule="evenodd" clip-rule="evenodd" d="M82.4602 36.7672H101.54L92 16.5835L82.4602 36.7672ZM72 39.1661L88.1486 5H95.8514L112 39.1661L108.149 45H75.8514L72 39.1661Z" fill="url(#paint0_linear_127874_496)"/>
<path d="M244.409 9C241.374 9 238.462 10.4125 236.561 12.6447C234.66 10.4125 231.748 9 228.714 9C223.343 9 219.123 13.2202 219.123 18.5913C219.123 25.1831 225.052 30.5542 234.033 38.7155L236.561 41L239.09 38.6981C248.071 30.5542 254 25.1831 254 18.5913C254 13.2202 249.78 9 244.409 9ZM236.736 36.1172L236.561 36.2916L236.387 36.1172C228.086 28.6011 222.61 23.6311 222.61 18.5913C222.61 15.1035 225.226 12.4877 228.714 12.4877C231.399 12.4877 234.015 14.2142 234.939 16.6033H238.2C239.107 14.2142 241.723 12.4877 244.409 12.4877C247.896 12.4877 250.512 15.1035 250.512 18.5913C250.512 23.6311 245.036 28.6011 236.736 36.1172Z" fill="url(#paint1_linear_127874_496)"/>
<g clip-path="url(#clip1_127874_496)">
<path d="M306.5 13.4993H303.333C303.333 10.0002 300.499 7.16602 297 7.16602C293.501 7.16602 290.667 10.0002 290.667 13.4993H287.5C285.758 13.4993 284.333 14.9243 284.333 16.666V35.666C284.333 37.4077 285.758 38.8327 287.5 38.8327H306.5C308.242 38.8327 309.667 37.4077 309.667 35.666V16.666C309.667 14.9243 308.242 13.4993 306.5 13.4993ZM297 10.3327C298.742 10.3327 300.167 11.7577 300.167 13.4993H293.833C293.833 11.7577 295.258 10.3327 297 10.3327ZM306.5 35.666H287.5V16.666H290.667V19.8327C290.667 20.7035 291.379 21.416 292.25 21.416C293.121 21.416 293.833 20.7035 293.833 19.8327V16.666H300.167V19.8327C300.167 20.7035 300.879 21.416 301.75 21.416C302.621 21.416 303.333 20.7035 303.333 19.8327V16.666H306.5V35.666Z" fill="#002F52"/>
</g>
<path d="M356 9C347.168 9 340 16.168 340 25C340 33.832 347.168 41 356 41C364.832 41 372 33.832 372 25C372 16.168 364.832 9 356 9ZM348.112 35.048C348.8 33.608 352.992 32.2 356 32.2C359.008 32.2 363.216 33.608 363.888 35.048C361.712 36.776 358.976 37.8 356 37.8C353.024 37.8 350.288 36.776 348.112 35.048ZM366.176 32.728C363.888 29.944 358.336 29 356 29C353.664 29 348.112 29.944 345.824 32.728C344.192 30.584 343.2 27.912 343.2 25C343.2 17.944 348.944 12.2 356 12.2C363.056 12.2 368.8 17.944 368.8 25C368.8 27.912 367.808 30.584 366.176 32.728ZM356 15.4C352.896 15.4 350.4 17.896 350.4 21C350.4 24.104 352.896 26.6 356 26.6C359.104 26.6 361.6 24.104 361.6 21C361.6 17.896 359.104 15.4 356 15.4ZM356 23.4C354.672 23.4 353.6 22.328 353.6 21C353.6 19.672 354.672 18.6 356 18.6C357.328 18.6 358.4 19.672 358.4 21C358.4 22.328 357.328 23.4 356 23.4Z" fill="#002F52"/>
<defs>
<linearGradient id="paint0_linear_127874_496" x1="92" y1="5" x2="92" y2="45" gradientUnits="userSpaceOnUse">
<stop offset="0.677083" stop-color="#FD8325"/>
<stop offset="1" stop-color="#FC6621"/>
</linearGradient>
<linearGradient id="paint1_linear_127874_496" x1="233.695" y1="5.15999" x2="283.945" y2="12.4119" gradientUnits="userSpaceOnUse">
<stop stop-color="#002F52"/>
<stop offset="1" stop-color="#326589"/>
</linearGradient>
<clipPath id="clip0_127874_496">
<rect width="48" height="48" fill="white" transform="translate(0 1)"/>
</clipPath>
<clipPath id="clip1_127874_496">
<rect width="38" height="38" fill="white" transform="translate(278 4)"/>
</clipPath>
</defs>
</svg>
